<svg xmlns="http://www.w3.org/2000/svg" version="1.1" xmlns:xlink="http://www.w3.org/1999/xlink" xmlns:svgjs="http://svgjs.dev/svgjs" width="1000" height="1000" viewBox="0 0 1000 1000"><rect width="1000" height="1000" fill="#ca3433"></rect><g transform="matrix(0.7,0,0,0.7,149.57575770293568,440.11593475937576)"><svg viewBox="0 0 396 68" data-background-color="#ca3433" preserveAspectRatio="xMidYMid meet" height="171" width="1000" xmlns="http://www.w3.org/2000/svg" xmlns:xlink="http://www.w3.org/1999/xlink"><g id="tight-bounds" transform="matrix(1,0,0,1,0.24000007194644013,0.019353455083717108)"><svg viewBox="0 0 395.52 67.96129452852153" height="67.96129452852153" width="395.52"><g><svg viewBox="0 0 395.52 67.96129452852153" height="67.96129452852153" width="395.52"><g><svg viewBox="0 0 395.52 67.96129452852153" height="67.96129452852153" width="395.52"><g><svg viewBox="0 0 395.52 67.96129452852153" height="67.96129452852153" width="395.52"><g><svg viewBox="0 0 395.52 67.96129452852153" height="67.96129452852153" width="395.52"><g transform="matrix(1,0,0,1,0,0)"><svg width="395.52" viewBox="3.1700000762939453 -35.54999923706055 209.7100067138672 36.040000915527344" height="67.96129452852153" data-palette-color="#ffffff"><path d="M32.08-35.55L32.08 0 24.76 0 10.5-23.39 10.5 0 3.17 0 3.17-35.55 10.5-35.55 24.78-12.11 24.78-35.55 32.08-35.55ZM59.86-21.14L59.86-15.41 45.8-15.41 45.8-5.88 62.3-5.88 62.3 0 38.47 0 38.47-35.55 62.25-35.55 62.25-29.61 45.8-29.61 45.8-21.14 59.86-21.14ZM93.84-35.55L93.84-29.61 82.95-29.61 82.95 0 75.63 0 75.63-29.61 64.89-29.61 64.89-35.55 93.84-35.55ZM119.4-20.43L119.4-14.53 105.34-14.53 105.34 0 98.01 0 98.01-35.55 121.16-35.55 121.16-29.61 105.34-29.61 105.34-20.43 119.4-20.43ZM132.73-35.55L132.73-5.88 148.28-5.88 148.28 0 125.41 0 125.41-35.55 132.73-35.55ZM171.45-35.55L178.8-35.55 178.8-12.13Q178.8-6.3 175.15-2.91 171.5 0.49 165.17 0.49L165.17 0.49Q158.95 0.49 155.29-2.81 151.62-6.1 151.55-11.87L151.55-11.87 151.55-35.55 158.87-35.55 158.87-12.08Q158.87-8.59 160.55-6.99 162.22-5.4 165.17-5.4L165.17-5.4Q171.35-5.4 171.45-11.89L171.45-11.89 171.45-35.55ZM190.85-35.55L197.52-23.29 204.18-35.55 212.61-35.55 202.26-17.92 212.88 0 204.36 0 197.52-12.45 190.68 0 182.16 0 192.78-17.92 182.43-35.55 190.85-35.55Z" opacity="1" transform="matrix(1,0,0,1,0,0)" fill="#ffffff" class="undefined-text-0" data-fill-palette-color="primary" id="text-0"></path></svg></g></svg></g></svg></g></svg></g><g></g></svg></g><defs></defs></svg><rect width="395.52" height="67.96129452852153" fill="none" stroke="none" visibility="hidden"></rect></g></svg></g></svg>